,
Brought to you by  http://www.scenetime.com/signup.php
 
 Hottest scene tracker on the net !!!   
 
No fake torrents from scenebalance 
shame on those who comment fake before downloading my torrents

    seed back for speed


 



...................................NFO:.................................................[img]http://img217.imageshack.us/img217/6564/limitlessl.jpg[/img]

[color=blue][size=5][b]Limitless.2011.R5.DVDRip.NEW.FULL.LINE.XVID.AC3-5.1.HQ.Hive-CM8[/b][/size][/color]


[b]Thx Hive


CM8 Doing It Right The First Time :D


Sources:
Video: Russian DVD-9
Oblast.tmi.2011.DVD9
Audio: Full Studio Quality Line
thx mate, another perfect audio

Encode:
Russian Dvd was very nice, still needed some sharpness brightness and chroma.
got really nice, looks like a BDRip, and i mean it like that.
The Perfect Studio Quality Line just fits perfect to the Video.
I synced the line like always "lipsync" to the dvd9. Was much work since the movie has a lot of spoken scenes.
Nothing is cut anywhere, full audio embedded in the cleaned russian 5.1 track.
its a damned retail-like Rip. - watch sample

Like always my Audio fits on any direct DVD Encode!

You should have wait for CM8!

enjoy

Video: 720x304 @bitrate 1800 2pass
Audio: English AC3 5.1 @448
Sample: yes included[/b]


[url]http://www.imdb.com/title/tt1219289/[/url]


General
Complete name                    : Limitless.2011.R5.DVDRip.NEW.FULL.LINE.XVID.AC3-5.1.HQ.Hive-CM8.avi
Format                           : AVI
Format/Info                      : Audio Video Interleave
File size                        : 1.58 GiB
Duration                         : 1h 40mn
Overall bit rate                 : 2 256 Kbps
Writing application              : Nandub v1.0rc2
Writing library                  : Nandub build 1853/release

Video
ID                               : 0
Format                           : MPEG-4 Visual
Format profile                   : Advanced Simple@L5
Format settings, BVOP            : 2
Format settings, QPel            : Yes
Format settings, GMC             : No warppoints
Format settings, Matrix          : Default (H.263)
Muxing mode                      : Packed bitstream
Codec ID                         : XVID
Codec ID/Hint                    : XviD
Duration                         : 1h 40mn
Bit rate                         : 1 799 Kbps
Width                            : 720 pixels
Height                           : 304 pixels
Display aspect ratio             : 2.35:1
Frame rate                       : 25.000 fps
Color space                      : YUV
Chroma subsampling               : 4:2:0
Bit depth                        : 8 bits
Scan type                        : Progressive
Compression mode                 : Lossy
Bits/(Pixel*Frame)               : 0.329
Stream size                      : 1.26 GiB (80%)
Writing library                  : XviD 1.2.1 (UTC 2008-12-04)

Audio
ID                               : 1
Format                           : AC-3
Format/Info                      : Audio Coding 3
Mode extension                   : CM (complete main)
Codec ID                         : 2000
Duration                         : 1h 40mn
Bit rate mode                    : Constant
Bit rate                         : 448 Kbps
Channel(s)                       : 6 channels
Channel positions                : Front: L C R, Side: L R, LFE
Sampling rate                    : 48.0 KHz
Bit depth                        : 16 bits
Compression mode                 : Lossy
Stream size                      : 322 MiB (20%)
Alignment                        : Split accross interleaves
Interleave, duration             : 40 ms (1.00 video frame)
Interleave, preload duration     : 500 ms



Bradley Cooper        ... Eddie Morra
Robert De Niro ... Carl Van Loon
Abbie Cornish ... Lindy
Andrew Howard ... Gennady
Anna Friel ... Melissa
Johnny Whitworth ... Vernon
Tomas Arana ... Man in Tan Coat
Robert John Burke ... Pierce


A copywriter discovers a top-secret drug which bestows him with super human abilities. 
As his usage begins to change his life, he begins to consider the drug's shadowy origins; meanwhile, a group of killers trails his every move.



[img]http://img90.imageshack.us/img90/4308/lililili.png[/img]
[img]http://img696.imageshack.us/img696/3674/lilililili.png[/img]
[img]http://img688.imageshack.us/img688/2483/lililililili.png[/img]
[img]http://img857.imageshack.us/img857/1731/lilililililiililillliil.png[/img]
[img]http://img836.imageshack.us/img836/9863/lililililililliili.png[/img]
[img]http://img600.imageshack.us/img600/7657/lilililililliili.png[/img]
[img]http://img706.imageshack.us/img706/1756/lililililliili.png[/img]
[img]http://img84.imageshack.us/img84/1072/lililililililliilili.png[/img]

custom dvdlabel:

[img]http://img832.imageshack.us/img832/6531/limitlessdvdlabel.jpg[/img]

custom dvdcover:

[img]http://img32.imageshack.us/img32/2062/limitlessdvdcover.jpg[/img]





ViSiON,LUSi,SANTi,MAGNET,THC,T0XiCiNK,LKRG,IMAGiNE,WBZ,FLAWL3SS,NOVA
Vik,OneTwo,Rapeseed,D2U,SAFC,goldadvance,MEMORY100,KaN1vE,Unevano,Pinnz,Wayne,Mr Hive
and all P2P groups 
Great Work Guys :D

CM8@hushmail.com